<svg width="24" height="15" viewBox="0 0 24 15" fill="none" xmlns="http://www.w3.org/2000/svg">
<path d="M0.764205 15V0.454545H10.3949V2.99006H3.83949V6.45597H9.75568V8.99148H3.83949V15H0.764205ZM12.4634 15V0.454545H18.2021C19.3005 0.454545 20.238 0.651041 21.0146 1.04403C21.7958 1.43229 22.39 1.9839 22.7972 2.69886C23.2092 3.40909 23.4151 4.24479 23.4151 5.20597C23.4151 6.17187 23.2068 7.00284 22.7901 7.69886C22.3735 8.39015 21.7698 8.92045 20.979 9.28977C20.1931 9.65909 19.2414 9.84375 18.1239 9.84375H14.2816V7.37216H17.6268C18.2139 7.37216 18.7016 7.29167 19.0898 7.13068C19.4781 6.9697 19.7669 6.72822 19.9563 6.40625C20.1504 6.08428 20.2475 5.68419 20.2475 5.20597C20.2475 4.72301 20.1504 4.31581 19.9563 3.98438C19.7669 3.65294 19.4757 3.40199 19.0827 3.23153C18.6945 3.05634 18.2044 2.96875 17.6126 2.96875H15.5387V15H12.4634ZM20.3185 8.38068L23.9336 15H20.5387L17.0018 8.38068H20.3185Z" fill="black"/>
</svg>
